<?xml version="1.0" encoding="UTF-8" standalone="no"?>
<svg
   viewBox="0 0 394 522.09998"
   version="1.1"
   id="svg1"
   sodipodi:docname="bolt-lightning-solid2.svg"
   width="394"
   height="522.09998"
   inkscape:version="1.3.2 (091e20e, 2023-11-25)"
   xmlns:inkscape="http://www.inkscape.org/namespaces/inkscape"
   xmlns:sodipodi="http://sodipodi.sourceforge.net/DTD/sodipodi-0.dtd"
   xmlns="http://www.w3.org/2000/svg"
   xmlns:svg="http://www.w3.org/2000/svg">
  <defs
     id="defs1" />
  <sodipodi:namedview
     id="namedview1"
     pagecolor="#ffffff"
     bordercolor="#666666"
     borderopacity="1.0"
     inkscape:showpageshadow="2"
     inkscape:pageopacity="0.0"
     inkscape:pagecheckerboard="0"
     inkscape:deskcolor="#d1d1d1"
     inkscape:zoom="2.0332031"
     inkscape:cx="196.97983"
     inkscape:cy="245.17963"
     inkscape:window-width="1392"
     inkscape:window-height="1212"
     inkscape:window-x="0"
     inkscape:window-y="25"
     inkscape:window-maximized="0"
     inkscape:current-layer="svg1" />
  <!--!Font Awesome Free 6.5.2 by @fontawesome - https://fontawesome.com License - https://fontawesome.com/license/free Copyright 2024 Fonticons, Inc.-->
  <path
     fill="#d5b069"
     d="M 5,261 33.5,33 C 35.5,17 49.1,5 65.3,5 h 168.6 c 15,0 27.1,12.1 27.1,27.1 0,3.2 -0.6,6.5 -1.7,9.5 L 213,165 h 139.3 c 20.2,0 36.7,16.4 36.7,36.7 0,7.4 -2.2,14.6 -6.4,20.7 l -192.2,281 c -5.9,8.6 -15.6,13.7 -25.9,13.7 h -2.9 c -15.7,0 -28.5,-12.8 -28.5,-28.5 0,-2.3 0.3,-4.6 0.9,-6.9 L 181,293 H 37 C 19.3,293 5,278.7 5,261 Z"
     id="path1"
     style="fill:#d5b06a;fill-opacity:1;stroke:#000000;stroke-width:10;stroke-linejoin:miter;stroke-dasharray:none;stroke-dashoffset:0;stroke-opacity:1" />
</svg>
